<mxfile host="app.diagrams.net" modified="2024-07-02T07:37:30.303Z" agent="Mozilla/5.0 (X11; Linux x86_64; rv:109.0) Gecko/20100101 Firefox/115.0" etag="zSgslrlJRobx5VQPPRXm" version="24.6.4" type="github">
  <diagram name="Page-1" id="0gIFkxR0GM96zrc2KV0M">
    <mxGraphModel dx="1050" dy="588" grid="1" gridSize="10" guides="1" tooltips="1" connect="1" arrows="1" fold="1" page="1" pageScale="1" pageWidth="827" pageHeight="1169" math="0" shadow="0">
      <root>
        <mxCell id="0" />
        <mxCell id="1" parent="0" />
        <mxCell id="PWqnMa3eey9PJOisw4ww-23" value="" style="ellipse;shape=cloud;whiteSpace=wrap;html=1;" vertex="1" parent="1">
          <mxGeometry x="107" y="176" width="610" height="404" as="geometry" />
        </mxCell>
        <mxCell id="PWqnMa3eey9PJOisw4ww-13" value="" style="rounded=1;whiteSpace=wrap;html=1;" vertex="1" parent="1">
          <mxGeometry x="363" y="280" width="120" height="60" as="geometry" />
        </mxCell>
        <mxCell id="PWqnMa3eey9PJOisw4ww-14" value="&lt;div&gt;main.py&lt;/div&gt;" style="text;html=1;align=center;verticalAlign=middle;whiteSpace=wrap;rounded=0;" vertex="1" parent="1">
          <mxGeometry x="390" y="295" width="60" height="30" as="geometry" />
        </mxCell>
        <mxCell id="PWqnMa3eey9PJOisw4ww-15" value="" style="ellipse;shape=cloud;whiteSpace=wrap;html=1;" vertex="1" parent="1">
          <mxGeometry x="30" y="190" width="120" height="80" as="geometry" />
        </mxCell>
        <mxCell id="PWqnMa3eey9PJOisw4ww-16" value="&lt;div&gt;Streamlit&lt;/div&gt;&lt;div&gt;Demo&lt;br&gt;&lt;/div&gt;" style="text;html=1;align=center;verticalAlign=middle;whiteSpace=wrap;rounded=0;" vertex="1" parent="1">
          <mxGeometry x="60" y="215" width="60" height="30" as="geometry" />
        </mxCell>
        <mxCell id="PWqnMa3eey9PJOisw4ww-18" value="Pull predictions" style="text;html=1;align=center;verticalAlign=middle;whiteSpace=wrap;rounded=0;" vertex="1" parent="1">
          <mxGeometry x="254" y="279" width="100" height="30" as="geometry" />
        </mxCell>
        <mxCell id="PWqnMa3eey9PJOisw4ww-20" value="/src" style="swimlane;childLayout=stackLayout;horizontal=1;startSize=50;horizontalStack=0;rounded=1;fontSize=14;fontStyle=0;strokeWidth=2;resizeParent=0;resizeLast=1;shadow=0;dashed=0;align=center;arcSize=4;whiteSpace=wrap;html=1;" vertex="1" parent="1">
          <mxGeometry x="343" y="410" width="160" height="120" as="geometry" />
        </mxCell>
        <mxCell id="PWqnMa3eey9PJOisw4ww-21" value="&lt;div&gt;+models.py&lt;/div&gt;&lt;div&gt;+config.py&lt;/div&gt;&lt;div&gt;+data.py&lt;/div&gt;&lt;div&gt;...&lt;br&gt;&lt;/div&gt;" style="align=left;strokeColor=none;fillColor=none;spacingLeft=4;fontSize=12;verticalAlign=top;resizable=0;rotatable=0;part=1;html=1;" vertex="1" parent="PWqnMa3eey9PJOisw4ww-20">
          <mxGeometry y="50" width="160" height="70" as="geometry" />
        </mxCell>
        <mxCell id="PWqnMa3eey9PJOisw4ww-22" value="" style="endArrow=classic;startArrow=classic;html=1;rounded=0;exitX=0.5;exitY=0;exitDx=0;exitDy=0;entryX=0.5;entryY=1;entryDx=0;entryDy=0;" edge="1" parent="1" source="PWqnMa3eey9PJOisw4ww-20" target="PWqnMa3eey9PJOisw4ww-13">
          <mxGeometry width="50" height="50" relative="1" as="geometry">
            <mxPoint x="390" y="340" as="sourcePoint" />
            <mxPoint x="440" y="290" as="targetPoint" />
          </mxGeometry>
        </mxCell>
        <mxCell id="PWqnMa3eey9PJOisw4ww-24" value="" style="shape=process;whiteSpace=wrap;html=1;backgroundOutline=1;" vertex="1" parent="1">
          <mxGeometry x="510" y="330" width="120" height="60" as="geometry" />
        </mxCell>
        <mxCell id="PWqnMa3eey9PJOisw4ww-25" value="&lt;div&gt;Github Actions&lt;/div&gt;&lt;div&gt;(weekly)&lt;/div&gt;" style="text;html=1;align=center;verticalAlign=middle;whiteSpace=wrap;rounded=0;" vertex="1" parent="1">
          <mxGeometry x="540" y="345" width="60" height="30" as="geometry" />
        </mxCell>
        <mxCell id="PWqnMa3eey9PJOisw4ww-26" value="" style="endArrow=classic;html=1;rounded=0;exitX=0.5;exitY=0;exitDx=0;exitDy=0;entryX=1;entryY=0.5;entryDx=0;entryDy=0;" edge="1" parent="1" source="PWqnMa3eey9PJOisw4ww-24" target="PWqnMa3eey9PJOisw4ww-13">
          <mxGeometry width="50" height="50" relative="1" as="geometry">
            <mxPoint x="390" y="340" as="sourcePoint" />
            <mxPoint x="480" y="330" as="targetPoint" />
            <Array as="points" />
          </mxGeometry>
        </mxCell>
        <mxCell id="PWqnMa3eey9PJOisw4ww-27" value="&lt;div&gt;Download new data&lt;br&gt;&lt;/div&gt;&lt;div&gt;Train model&lt;/div&gt;" style="text;html=1;align=center;verticalAlign=middle;whiteSpace=wrap;rounded=0;" vertex="1" parent="1">
          <mxGeometry x="501" y="272" width="119" height="44" as="geometry" />
        </mxCell>
        <mxCell id="PWqnMa3eey9PJOisw4ww-28" value="streamlit.py" style="rounded=1;whiteSpace=wrap;html=1;" vertex="1" parent="1">
          <mxGeometry x="200" y="316" width="120" height="60" as="geometry" />
        </mxCell>
        <mxCell id="PWqnMa3eey9PJOisw4ww-29" value="" style="endArrow=classic;html=1;rounded=0;exitX=1;exitY=0.5;exitDx=0;exitDy=0;entryX=0;entryY=0.5;entryDx=0;entryDy=0;" edge="1" parent="1" source="PWqnMa3eey9PJOisw4ww-28" target="PWqnMa3eey9PJOisw4ww-13">
          <mxGeometry width="50" height="50" relative="1" as="geometry">
            <mxPoint x="390" y="370" as="sourcePoint" />
            <mxPoint x="440" y="320" as="targetPoint" />
          </mxGeometry>
        </mxCell>
        <mxCell id="PWqnMa3eey9PJOisw4ww-30" value="" style="endArrow=classic;html=1;rounded=0;entryX=0.55;entryY=0.95;entryDx=0;entryDy=0;entryPerimeter=0;exitX=0;exitY=0.5;exitDx=0;exitDy=0;" edge="1" parent="1" source="PWqnMa3eey9PJOisw4ww-28" target="PWqnMa3eey9PJOisw4ww-15">
          <mxGeometry width="50" height="50" relative="1" as="geometry">
            <mxPoint x="390" y="370" as="sourcePoint" />
            <mxPoint x="440" y="320" as="targetPoint" />
          </mxGeometry>
        </mxCell>
      </root>
    </mxGraphModel>
  </diagram>
</mxfile>
